<svg width="1200" height="630" viewBox="0 0 1200 630" xmlns="http://www.w3.org/2000/svg"><mask id="satori_om-id"><rect x="0" y="0" width="1200" height="630" fill="#fff"/></mask><rect x="0" y="0" width="1200" height="630" fill="#fff"/><clipPath id="satori_cp-id-0"><rect x="563" y="243" width="75" height="65"/></clipPath><mask id="satori_om-id-0"><rect x="563" y="243" width="75" height="65" fill="#fff"/></mask><image x="563" y="243" width="75" height="65" href="data:image/svg+xml;utf8,%3Csvg  fill=%22%23000%22 xmlns=%22http://www.w3.org/2000/svg%22 width=%22NaN%22 height=%22null%22 viewBox=%220 0 75 65%22%3E%3Cpath d=%22M37.59.25l36.95 64H.64l36.95-64z%22%3E%3C/path%3E%3C/svg%3E" preserveAspectRatio="none" clip-path="url(#satori_cp-id-0)" mask="url(#satori_om-id-0)"/><mask id="satori_om-id-0-0"><rect x="563" y="243" width="0" height="65" fill="#fff"/></mask><mask id="satori_om-id-1"><rect x="412" y="348" width="376" height="39" fill="#fff"/></mask><path fill="black" d="M423.9 361.0L418.0 379L412.8 379L420.8 355.7L427.1 355.7L435.2 379L429.9 379L424.1 361.0L423.9 361.0ZM417.7 373.7L417.7 369.9L430.2 369.9L430.2 373.7L417.7 373.7ZM435.5 361.5L446.1 361.5L446.1 365.2L435.5 365.2L435.5 361.5ZM437.9 374.3L437.9 357.4L442.8 357.4L442.8 373.6Q442.8 374.3 443.0 374.7Q443.2 375.0 443.6 375.2Q443.9 375.3 444.4 375.3L444.4 375.3Q444.8 375.3 445.1 375.3Q445.4 375.2 445.6 375.2L445.6 375.2L446.4 378.8Q446.0 378.9 445.4 379.1Q444.7 379.2 443.8 379.2L443.8 379.2Q442.0 379.3 440.7 378.8Q439.4 378.2 438.6 377.1Q437.9 376.0 437.9 374.3L437.9 374.3ZM454.0 379L449.2 379L449.2 361.5L454.0 361.5L454.0 379ZM451.6 359.3L451.6 359.3Q450.6 359.3 449.8 358.6Q449.0 357.9 449.0 356.8L449.0 356.8Q449.0 355.8 449.8 355.1Q450.6 354.4 451.6 354.4L451.6 354.4Q452.7 354.4 453.5 355.1Q454.3 355.8 454.3 356.8L454.3 356.8Q454.3 357.9 453.5 358.6Q452.7 359.3 451.6 359.3ZM474.3 385.5L469.4 385.5L469.4 376.2L469.3 376.2Q469.0 376.9 468.3 377.6Q467.7 378.4 466.7 378.8Q465.8 379.3 464.3 379.3L464.3 379.3Q462.4 379.3 460.7 378.3Q459.1 377.2 458.2 375.2Q457.3 373.2 457.3 370.3L457.3 370.3Q457.3 367.3 458.2 365.3Q459.2 363.3 460.8 362.3Q462.4 361.3 464.3 361.3L464.3 361.3Q465.8 361.3 466.8 361.8Q467.8 362.3 468.4 363.0Q469.0 363.8 469.3 364.5L469.3 364.5L469.5 364.5L469.5 361.5L474.3 361.5L474.3 385.5ZM465.9 375.4L465.9 375.4Q467.0 375.4 467.9 374.8Q468.7 374.1 469.1 373.0Q469.5 371.8 469.5 370.3L469.5 370.3Q469.5 368.7 469.1 367.6Q468.7 366.4 467.9 365.8Q467.0 365.2 465.9 365.2L465.9 365.2Q464.7 365.2 463.9 365.8Q463.0 366.5 462.6 367.6Q462.2 368.8 462.2 370.3L462.2 370.3Q462.2 371.8 462.6 373.0Q463.1 374.1 463.9 374.8Q464.7 375.4 465.9 375.4ZM489.3 371.6L489.3 371.6L489.3 361.5L494.2 361.5L494.2 379L489.5 379L489.5 375.8L489.4 375.8Q488.8 377.4 487.4 378.3Q486.0 379.2 484.1 379.2L484.1 379.2Q482.3 379.2 481.0 378.4Q479.6 377.6 478.9 376.2Q478.2 374.7 478.1 372.7L478.1 372.7L478.1 361.5L483.0 361.5L483.0 371.8Q483.0 373.3 483.8 374.2Q484.6 375.1 486.0 375.1L486.0 375.1Q486.9 375.1 487.6 374.7Q488.4 374.3 488.9 373.5Q489.4 372.7 489.3 371.6ZM502.9 379L498.0 379L498.0 361.5L502.7 361.5L502.7 364.6L502.9 364.6Q503.4 363.0 504.5 362.1Q505.6 361.3 507.1 361.3L507.1 361.3Q507.5 361.3 507.9 361.3Q508.3 361.4 508.6 361.5L508.6 361.5L508.6 365.8Q508.3 365.7 507.7 365.6Q507.1 365.5 506.6 365.5L506.6 365.5Q505.5 365.5 504.7 366.0Q503.9 366.4 503.4 367.2Q502.9 368.1 502.9 369.1L502.9 369.1L502.9 379Z M524.6 379L519.7 379L519.7 355.7L528.9 355.7Q531.5 355.7 533.4 356.7Q535.3 357.6 536.3 359.3Q537.3 361.0 537.3 363.3L537.3 363.3Q537.3 365.6 536.3 367.3Q535.3 369.0 533.4 369.9Q531.5 370.8 528.8 370.8L528.8 370.8L522.6 370.8L522.6 366.8L528.0 366.8Q529.4 366.8 530.3 366.4Q531.3 366.0 531.7 365.3Q532.2 364.5 532.2 363.3L532.2 363.3Q532.2 362.2 531.7 361.4Q531.3 360.6 530.3 360.2Q529.4 359.8 528.0 359.8L528.0 359.8L524.6 359.8L524.6 379ZM527.0 368.4L532.3 368.4L538.1 379L532.6 379L527.0 368.4ZM545.6 379.3L545.6 379.3Q543.9 379.3 542.6 378.7Q541.3 378.2 540.6 377.0Q539.8 375.9 539.8 374.1L539.8 374.1Q539.8 372.7 540.4 371.7Q540.9 370.7 541.8 370.1Q542.7 369.5 543.9 369.2Q545.1 368.9 546.4 368.8L546.4 368.8Q547.9 368.6 548.8 368.4Q549.8 368.3 550.2 368.0Q550.6 367.7 550.6 367.2L550.6 367.2L550.6 367.1Q550.6 366.0 549.9 365.4Q549.3 364.9 548.0 364.9L548.0 364.9Q546.7 364.9 545.9 365.4Q545.2 366 544.9 366.9L544.9 366.9L540.4 366.5Q540.8 364.9 541.8 363.7Q542.8 362.6 544.4 361.9Q545.9 361.3 548.0 361.3L548.0 361.3Q549.5 361.3 550.8 361.7Q552.2 362 553.2 362.7Q554.2 363.4 554.8 364.6Q555.4 365.7 555.4 367.2L555.4 367.2L555.4 379L550.9 379L550.9 376.6L550.7 376.6Q550.3 377.4 549.6 378.0Q548.9 378.6 547.9 379.0Q546.9 379.3 545.6 379.3ZM547 376.0L547 376.0Q548.1 376.0 548.9 375.6Q549.7 375.1 550.2 374.4Q550.6 373.7 550.6 372.8L550.6 372.8L550.6 370.9Q550.4 371.1 550.0 371.2Q549.6 371.3 549.1 371.4Q548.6 371.5 548.2 371.6Q547.7 371.6 547.3 371.7L547.3 371.7Q546.4 371.8 545.8 372.1Q545.1 372.4 544.8 372.8Q544.4 373.3 544.4 374.0L544.4 374.0Q544.4 375.0 545.2 375.5Q545.9 376.0 547 376.0ZM564.0 368.9L564.0 368.9L564.0 379L559.2 379L559.2 355.7L563.9 355.7L563.9 364.6L564.1 364.6Q564.7 363.1 566.0 362.2Q567.3 361.3 569.3 361.3L569.3 361.3Q571.1 361.3 572.5 362.1Q573.9 362.9 574.6 364.4Q575.4 365.8 575.4 367.9L575.4 367.9L575.4 379L570.5 379L570.5 368.8Q570.5 367.1 569.7 366.2Q568.9 365.3 567.4 365.3L567.4 365.3Q566.4 365.3 565.7 365.8Q564.9 366.2 564.5 367.0Q564.1 367.8 564.0 368.9ZM584.0 379L579.2 379L579.2 361.5L583.8 361.5L583.8 364.6L584.0 364.6Q584.5 363.1 585.8 362.2Q587.1 361.3 588.9 361.3L588.9 361.3Q590.7 361.3 591.9 362.2Q593.2 363.1 593.6 364.6L593.6 364.6L593.8 364.6Q594.3 363.1 595.7 362.2Q597.1 361.3 599.0 361.3L599.0 361.3Q601.5 361.3 603.0 362.9Q604.5 364.4 604.5 367.3L604.5 367.3L604.5 379L599.7 379L599.7 368.2Q599.7 366.8 598.9 366.0Q598.2 365.3 597.0 365.3L597.0 365.3Q595.7 365.3 595.0 366.1Q594.2 367.0 594.2 368.3L594.2 368.3L594.2 379L589.5 379L589.5 368.1Q589.5 366.8 588.8 366.1Q588.1 365.3 586.9 365.3L586.9 365.3Q586.1 365.3 585.4 365.7Q584.8 366.1 584.4 366.8Q584.0 367.6 584.0 368.5L584.0 368.5L584.0 379ZM613.3 379.3L613.3 379.3Q611.7 379.3 610.4 378.7Q609.1 378.2 608.3 377.0Q607.5 375.9 607.5 374.1L607.5 374.1Q607.5 372.7 608.1 371.7Q608.6 370.7 609.5 370.1Q610.5 369.5 611.6 369.2Q612.8 368.9 614.1 368.8L614.1 368.8Q615.6 368.6 616.6 368.4Q617.5 368.3 617.9 368.0Q618.3 367.7 618.3 367.2L618.3 367.2L618.3 367.1Q618.3 366.0 617.7 365.4Q617.0 364.9 615.7 364.9L615.7 364.9Q614.4 364.9 613.7 365.4Q612.9 366 612.6 366.9L612.6 366.9L608.2 366.5Q608.5 364.9 609.5 363.7Q610.5 362.6 612.1 361.9Q613.7 361.3 615.8 361.3L615.8 361.3Q617.2 361.3 618.6 361.7Q619.9 362 620.9 362.7Q622.0 363.4 622.6 364.6Q623.2 365.7 623.2 367.2L623.2 367.2L623.2 379L618.6 379L618.6 376.6L618.4 376.6Q618.0 377.4 617.3 378.0Q616.6 378.6 615.6 379.0Q614.6 379.3 613.3 379.3ZM614.7 376.0L614.7 376.0Q615.8 376.0 616.6 375.6Q617.4 375.1 617.9 374.4Q618.4 373.7 618.4 372.8L618.4 372.8L618.4 370.9Q618.1 371.1 617.7 371.2Q617.4 371.3 616.9 371.4Q616.4 371.5 615.9 371.6Q615.4 371.6 615.0 371.7L615.0 371.7Q614.1 371.8 613.5 372.1Q612.9 372.4 612.5 372.8Q612.2 373.3 612.2 374.0L612.2 374.0Q612.2 375.0 612.9 375.5Q613.6 376.0 614.7 376.0ZM631.8 368.9L631.8 368.9L631.8 379L626.9 379L626.9 361.5L631.5 361.5L631.5 364.6L631.8 364.6Q632.3 363.1 633.7 362.2Q635.1 361.3 637.0 361.3L637.0 361.3Q638.8 361.3 640.2 362.1Q641.5 362.9 642.3 364.4Q643.0 365.9 643.0 367.9L643.0 367.9L643.0 379L638.2 379L638.2 368.8Q638.2 367.1 637.4 366.2Q636.5 365.3 635.1 365.3L635.1 365.3Q634.1 365.3 633.4 365.8Q632.6 366.2 632.2 367.0Q631.8 367.8 631.8 368.9Z M659.3 379L654.3 379L654.3 355.7L663.5 355.7Q666.2 355.7 668.0 356.7Q669.9 357.7 670.9 359.5Q671.9 361.3 671.9 363.6L671.9 363.6Q671.9 365.9 670.9 367.7Q669.9 369.5 668.0 370.5Q666.1 371.5 663.4 371.5L663.4 371.5L657.5 371.5L657.5 367.5L662.6 367.5Q664.0 367.5 664.9 367.0Q665.9 366.5 666.3 365.6Q666.8 364.8 666.8 363.6L666.8 363.6Q666.8 362.5 666.3 361.6Q665.9 360.7 664.9 360.2Q664.0 359.8 662.6 359.8L662.6 359.8L659.3 359.8L659.3 379ZM682.6 379.3L682.6 379.3Q679.9 379.3 678.0 378.2Q676.1 377.1 675.0 375.1Q674.0 373.0 674.0 370.3L674.0 370.3Q674.0 367.6 675.0 365.6Q676.1 363.6 678.0 362.4Q679.9 361.3 682.6 361.3L682.6 361.3Q685.2 361.3 687.1 362.4Q689.1 363.6 690.1 365.6Q691.2 367.6 691.2 370.3L691.2 370.3Q691.2 373.0 690.1 375.1Q689.1 377.1 687.1 378.2Q685.2 379.3 682.6 379.3ZM682.6 375.6L682.6 375.6Q683.8 375.6 684.6 374.9Q685.4 374.2 685.8 373.0Q686.2 371.8 686.2 370.3L686.2 370.3Q686.2 368.8 685.8 367.6Q685.4 366.4 684.6 365.7Q683.8 365.0 682.6 365.0L682.6 365.0Q681.4 365.0 680.6 365.7Q679.7 366.4 679.3 367.6Q678.9 368.8 678.9 370.3L678.9 370.3Q678.9 371.8 679.3 373.0Q679.7 374.2 680.6 374.9Q681.4 375.6 682.6 375.6ZM699.2 379L694.3 379L694.3 361.5L699.0 361.5L699.0 364.6L699.2 364.6Q699.7 363.0 700.8 362.1Q701.9 361.3 703.4 361.3L703.4 361.3Q703.8 361.3 704.2 361.3Q704.6 361.4 704.9 361.5L704.9 361.5L704.9 365.8Q704.6 365.7 704.0 365.6Q703.4 365.5 702.9 365.5L702.9 365.5Q701.8 365.5 701.0 366.0Q700.1 366.4 699.6 367.2Q699.2 368.1 699.2 369.1L699.2 369.1L699.2 379ZM707.0 361.5L717.6 361.5L717.6 365.2L707.0 365.2L707.0 361.5ZM709.4 374.3L709.4 357.4L714.3 357.4L714.3 373.6Q714.3 374.3 714.5 374.7Q714.7 375.0 715.1 375.2Q715.4 375.3 715.9 375.3L715.9 375.3Q716.3 375.3 716.6 375.3Q716.9 375.2 717.1 375.2L717.1 375.2L717.9 378.8Q717.5 378.9 716.9 379.1Q716.2 379.2 715.3 379.2L715.3 379.2Q713.5 379.3 712.2 378.8Q710.9 378.2 710.1 377.1Q709.4 376.0 709.4 374.3L709.4 374.3ZM719.3 361.5L730.1 361.5L730.1 365.2L719.3 365.2L719.3 361.5ZM726.6 379L721.8 379L721.8 360.3Q721.8 358.4 722.5 357.1Q723.3 355.9 724.6 355.3Q725.9 354.6 727.5 354.6L727.5 354.6Q728.6 354.6 729.6 354.8Q730.5 355.0 730.9 355.1L730.9 355.1L730.1 358.8Q729.8 358.7 729.4 358.6Q729.0 358.5 728.5 358.5L728.5 358.5Q727.5 358.5 727.0 359.0Q726.6 359.5 726.6 360.4L726.6 360.4L726.6 379ZM740.3 379.3L740.3 379.3Q737.7 379.3 735.7 378.2Q733.8 377.1 732.8 375.1Q731.7 373.0 731.7 370.3L731.7 370.3Q731.7 367.6 732.8 365.6Q733.8 363.6 735.7 362.4Q737.7 361.3 740.3 361.3L740.3 361.3Q743.0 361.3 744.9 362.4Q746.8 363.6 747.9 365.6Q748.9 367.6 748.9 370.3L748.9 370.3Q748.9 373.0 747.9 375.1Q746.8 377.1 744.9 378.2Q743.0 379.3 740.3 379.3ZM740.3 375.6L740.3 375.6Q741.5 375.6 742.4 374.9Q743.2 374.2 743.6 373.0Q744.0 371.8 744.0 370.3L744.0 370.3Q744.0 368.8 743.6 367.6Q743.2 366.4 742.4 365.7Q741.5 365.0 740.3 365.0L740.3 365.0Q739.1 365.0 738.3 365.7Q737.5 366.4 737.1 367.6Q736.6 368.8 736.6 370.3L736.6 370.3Q736.6 371.8 737.1 373.0Q737.5 374.2 738.3 374.9Q739.1 375.6 740.3 375.6ZM752.1 355.7L756.9 355.7L756.9 379L752.1 379L752.1 355.7ZM765.6 379L760.8 379L760.8 361.5L765.6 361.5L765.6 379ZM763.2 359.3L763.2 359.3Q762.1 359.3 761.4 358.6Q760.6 357.9 760.6 356.8L760.6 356.8Q760.6 355.8 761.4 355.1Q762.1 354.4 763.2 354.4L763.2 354.4Q764.3 354.4 765.1 355.1Q765.8 355.8 765.8 356.8L765.8 356.8Q765.8 357.9 765.1 358.6Q764.3 359.3 763.2 359.3ZM777.4 379.3L777.4 379.3Q774.7 379.3 772.8 378.2Q770.9 377.1 769.8 375.1Q768.8 373.0 768.8 370.3L768.8 370.3Q768.8 367.6 769.8 365.6Q770.9 363.6 772.8 362.4Q774.7 361.3 777.4 361.3L777.4 361.3Q780.0 361.3 781.9 362.4Q783.9 363.6 784.9 365.6Q786.0 367.6 786.0 370.3L786.0 370.3Q786.0 373.0 784.9 375.1Q783.9 377.1 781.9 378.2Q780.0 379.3 777.4 379.3ZM777.4 375.6L777.4 375.6Q778.6 375.6 779.4 374.9Q780.2 374.2 780.6 373.0Q781.0 371.8 781.0 370.3L781.0 370.3Q781.0 368.8 780.6 367.6Q780.2 366.4 779.4 365.7Q778.6 365.0 777.4 365.0L777.4 365.0Q776.2 365.0 775.3 365.7Q774.5 366.4 774.1 367.6Q773.7 368.8 773.7 370.3L773.7 370.3Q773.7 371.8 774.1 373.0Q774.5 374.2 775.3 374.9Q776.2 375.6 777.4 375.6Z "/></svg>